<svg width="87" height="24" viewBox="0 0 87 24" fill="none" xmlns="http://www.w3.org/2000/svg">
<path d="M10.1 2.18201C11.355 1.93913 12.645 1.93913 13.9 2.18201M13.9 21.818C12.645 22.0609 11.355 22.0609 10.1 21.818M17.609 3.72101C18.6705 4.44023 19.5837 5.35688 20.299 6.42101M2.182 13.9C1.93912 12.645 1.93912 11.355 2.182 10.1M20.279 17.609C19.5598 18.6705 18.6431 19.5837 17.579 20.299M21.818 10.1C22.0609 11.355 22.0609 12.645 21.818 13.9M3.721 6.39101C4.44022 5.32954 5.35687 4.41629 6.421 3.70101M6.391 20.279C5.32953 19.5598 4.41628 18.6431 3.701 17.579" stroke="black" stroke-width="2" stroke-linecap="round" stroke-linejoin="round"/>
<path d="M36.7784 12.6364C36.7784 13.5881 36.598 14.3977 36.2372 15.0653C35.8793 15.733 35.3906 16.2429 34.7713 16.5952C34.1548 16.9446 33.4616 17.1193 32.6918 17.1193C31.9162 17.1193 31.2202 16.9432 30.6037 16.5909C29.9872 16.2386 29.5 15.7287 29.142 15.0611C28.7841 14.3935 28.6051 13.5852 28.6051 12.6364C28.6051 11.6847 28.7841 10.875 29.142 10.2074C29.5 9.53977 29.9872 9.03125 30.6037 8.68182C31.2202 8.32955 31.9162 8.15341 32.6918 8.15341C33.4616 8.15341 34.1548 8.32955 34.7713 8.68182C35.3906 9.03125 35.8793 9.53977 36.2372 10.2074C36.598 10.875 36.7784 11.6847 36.7784 12.6364ZM34.9077 12.6364C34.9077 12.0199 34.8153 11.5 34.6307 11.0767C34.4489 10.6534 34.1918 10.3324 33.8594 10.1136C33.527 9.89489 33.1378 9.78551 32.6918 9.78551C32.2457 9.78551 31.8565 9.89489 31.5241 10.1136C31.1918 10.3324 30.9332 10.6534 30.7486 11.0767C30.5668 11.5 30.4759 12.0199 30.4759 12.6364C30.4759 13.2528 30.5668 13.7727 30.7486 14.196C30.9332 14.6193 31.1918 14.9403 31.5241 15.1591C31.8565 15.3778 32.2457 15.4872 32.6918 15.4872C33.1378 15.4872 33.527 15.3778 33.8594 15.1591C34.1918 14.9403 34.4489 14.6193 34.6307 14.196C34.8153 13.7727 34.9077 13.2528 34.9077 12.6364ZM38.1112 19.4545V10.4545H39.9009V11.554H39.9819C40.0614 11.3778 40.1765 11.1989 40.3271 11.017C40.4805 10.8324 40.6793 10.679 40.9237 10.5568C41.1708 10.4318 41.4776 10.3693 41.8441 10.3693C42.3214 10.3693 42.7617 10.4943 43.1651 10.7443C43.5685 10.9915 43.891 11.3651 44.1325 11.8651C44.3739 12.3622 44.4947 12.9858 44.4947 13.7358C44.4947 14.4659 44.3768 15.0824 44.141 15.5852C43.908 16.0852 43.5898 16.4645 43.1864 16.723C42.7859 16.9787 42.337 17.1065 41.8398 17.1065C41.4876 17.1065 41.1879 17.0483 40.9407 16.9318C40.6964 16.8153 40.4961 16.669 40.3398 16.4929C40.1836 16.3139 40.0643 16.1335 39.9819 15.9517H39.9265V19.4545H38.1112ZM39.8881 13.7273C39.8881 14.1165 39.9421 14.456 40.0501 14.7457C40.158 15.0355 40.3143 15.2614 40.5188 15.4233C40.7234 15.5824 40.9719 15.6619 41.2646 15.6619C41.56 15.6619 41.81 15.581 42.0146 15.419C42.2191 15.2543 42.3739 15.027 42.479 14.7372C42.587 14.4446 42.641 14.108 42.641 13.7273C42.641 13.3494 42.5884 13.017 42.4833 12.7301C42.3782 12.4432 42.2234 12.2187 42.0188 12.0568C41.8143 11.8949 41.5629 11.8139 41.2646 11.8139C40.9691 11.8139 40.7191 11.892 40.5146 12.0483C40.3129 12.2045 40.158 12.4261 40.0501 12.7131C39.9421 13 39.8881 13.3381 39.8881 13.7273ZM48.6879 17.1278C48.0146 17.1278 47.435 16.9915 46.9492 16.7188C46.4663 16.4432 46.0941 16.054 45.8327 15.5511C45.5714 15.0455 45.4407 14.4474 45.4407 13.7571C45.4407 13.0838 45.5714 12.4929 45.8327 11.9844C46.0941 11.4759 46.462 11.0795 46.9364 10.7955C47.4137 10.5114 47.9734 10.3693 48.6154 10.3693C49.0472 10.3693 49.4492 10.4389 49.8214 10.5781C50.1964 10.7145 50.5231 10.9205 50.8015 11.196C51.0827 11.4716 51.3015 11.8182 51.4577 12.2358C51.614 12.6506 51.6921 13.1364 51.6921 13.6932V14.1918H46.1651V13.0668H49.9833C49.9833 12.8054 49.9265 12.5739 49.8129 12.3722C49.6992 12.1705 49.5415 12.0128 49.3398 11.8991C49.141 11.7827 48.9094 11.7244 48.6452 11.7244C48.3697 11.7244 48.1254 11.7884 47.9123 11.9162C47.7021 12.0412 47.5373 12.2102 47.418 12.4233C47.2987 12.6335 47.2376 12.8679 47.2347 13.1264V14.196C47.2347 14.5199 47.2944 14.7997 47.4137 15.0355C47.5359 15.2713 47.7077 15.4531 47.9293 15.581C48.1509 15.7088 48.4137 15.7727 48.7177 15.7727C48.9194 15.7727 49.104 15.7443 49.2717 15.6875C49.4393 15.6307 49.5827 15.5455 49.7021 15.4318C49.8214 15.3182 49.9123 15.179 49.9748 15.0142L51.6538 15.125C51.5685 15.5284 51.3938 15.8807 51.1296 16.1818C50.8683 16.4801 50.5302 16.7131 50.1154 16.8807C49.7035 17.0455 49.2276 17.1278 48.6879 17.1278ZM54.6921 13.2159V17H52.8768V10.4545H54.6069V11.6094H54.6836C54.8285 11.2287 55.0714 10.9276 55.4123 10.706C55.7532 10.4815 56.1665 10.3693 56.6523 10.3693C57.1069 10.3693 57.5032 10.4688 57.8413 10.6676C58.1793 10.8665 58.4421 11.1506 58.6296 11.5199C58.8171 11.8864 58.9109 12.3239 58.9109 12.8324V17H57.0955V13.1562C57.0984 12.7557 56.9961 12.4432 56.7887 12.2188C56.5813 11.9915 56.2958 11.8778 55.9322 11.8778C55.6879 11.8778 55.4719 11.9304 55.2844 12.0355C55.0998 12.1406 54.9549 12.294 54.8498 12.4957C54.7475 12.6946 54.695 12.9347 54.6921 13.2159ZM65.1101 10.7827C65.076 10.4389 64.9297 10.1719 64.6712 9.98153C64.4126 9.79119 64.0618 9.69602 63.6186 9.69602C63.3175 9.69602 63.0632 9.73864 62.8558 9.82386C62.6484 9.90625 62.4893 10.0213 62.3786 10.169C62.2706 10.3168 62.2166 10.4844 62.2166 10.6719C62.2109 10.8281 62.2436 10.9645 62.3146 11.081C62.3885 11.1974 62.4893 11.2983 62.6172 11.3835C62.745 11.4659 62.8928 11.5384 63.0604 11.6009C63.228 11.6605 63.407 11.7116 63.5973 11.7543L64.3814 11.9418C64.7621 12.027 65.1115 12.1406 65.4297 12.2827C65.7479 12.4247 66.0234 12.5994 66.2564 12.8068C66.4893 13.0142 66.6697 13.2585 66.7976 13.5398C66.9283 13.821 66.995 14.1435 66.9979 14.5071C66.995 15.0412 66.8587 15.5043 66.5888 15.8963C66.3217 16.2855 65.9354 16.5881 65.4297 16.804C64.9268 17.017 64.3203 17.1236 63.6101 17.1236C62.9055 17.1236 62.2919 17.0156 61.7692 16.7997C61.2493 16.5838 60.843 16.2642 60.5504 15.8409C60.2607 15.4148 60.1087 14.8878 60.0945 14.2599H61.88C61.8999 14.5526 61.9837 14.7969 62.1314 14.9929C62.282 15.1861 62.4822 15.3324 62.7322 15.4318C62.9851 15.5284 63.2706 15.5767 63.5888 15.5767C63.9013 15.5767 64.1726 15.5312 64.4027 15.4403C64.6357 15.3494 64.8161 15.223 64.9439 15.0611C65.0717 14.8991 65.1357 14.7131 65.1357 14.5028C65.1357 14.3068 65.0774 14.142 64.9609 14.0085C64.8473 13.875 64.6797 13.7614 64.4581 13.6676C64.2393 13.5739 63.9709 13.4886 63.6527 13.4119L62.7024 13.1733C61.9666 12.9943 61.3857 12.7145 60.9595 12.3338C60.5334 11.9531 60.3217 11.4403 60.3246 10.7955C60.3217 10.267 60.4624 9.8054 60.7464 9.41051C61.0334 9.01562 61.4268 8.70739 61.9268 8.4858C62.4268 8.2642 62.995 8.15341 63.6314 8.15341C64.2791 8.15341 64.8445 8.2642 65.3274 8.4858C65.8132 8.70739 66.1911 9.01562 66.4609 9.41051C66.7308 9.8054 66.87 10.2628 66.8786 10.7827H65.1101ZM69.3256 19.4545C69.0955 19.4545 68.8796 19.4361 68.6779 19.3991C68.479 19.3651 68.3143 19.321 68.1836 19.267L68.5927 17.9119C68.8058 17.9773 68.9975 18.0128 69.168 18.0185C69.3413 18.0241 69.4904 17.9844 69.6154 17.8991C69.7433 17.8139 69.8469 17.669 69.9265 17.4645L70.033 17.1875L67.685 10.4545H69.5941L70.9492 15.2614H71.0174L72.3853 10.4545H74.3072L71.7631 17.7074C71.641 18.0597 71.4748 18.3665 71.2646 18.6278C71.0572 18.892 70.7944 19.0952 70.4762 19.2372C70.158 19.3821 69.7745 19.4545 69.3256 19.4545ZM78.7177 10.4545V11.8182H74.7759V10.4545H78.7177ZM75.6708 8.88636H77.4862V14.9886C77.4862 15.1562 77.5117 15.2869 77.5629 15.3807C77.614 15.4716 77.685 15.5355 77.7759 15.5724C77.8697 15.6094 77.9776 15.6278 78.0998 15.6278C78.185 15.6278 78.2702 15.6207 78.3555 15.6065C78.4407 15.5895 78.506 15.5767 78.5515 15.5682L78.837 16.919C78.7461 16.9474 78.6183 16.9801 78.4535 17.017C78.2887 17.0568 78.0884 17.081 77.8526 17.0895C77.4151 17.1065 77.0316 17.0483 76.7021 16.9148C76.3754 16.7812 76.1211 16.5739 75.9393 16.2926C75.7575 16.0114 75.668 15.6562 75.6708 15.2273V8.88636ZM82.8129 17.1278C82.1396 17.1278 81.56 16.9915 81.0742 16.7188C80.5913 16.4432 80.2191 16.054 79.9577 15.5511C79.6964 15.0455 79.5657 14.4474 79.5657 13.7571C79.5657 13.0838 79.6964 12.4929 79.9577 11.9844C80.2191 11.4759 80.587 11.0795 81.0614 10.7955C81.5387 10.5114 82.0984 10.3693 82.7404 10.3693C83.1722 10.3693 83.5742 10.4389 83.9464 10.5781C84.3214 10.7145 84.6481 10.9205 84.9265 11.196C85.2077 11.4716 85.4265 11.8182 85.5827 12.2358C85.739 12.6506 85.8171 13.1364 85.8171 13.6932V14.1918H80.2901V13.0668H84.1083C84.1083 12.8054 84.0515 12.5739 83.9379 12.3722C83.8242 12.1705 83.6665 12.0128 83.4648 11.8991C83.266 11.7827 83.0344 11.7244 82.7702 11.7244C82.4947 11.7244 82.2504 11.7884 82.0373 11.9162C81.8271 12.0412 81.6623 12.2102 81.543 12.4233C81.4237 12.6335 81.3626 12.8679 81.3597 13.1264V14.196C81.3597 14.5199 81.4194 14.7997 81.5387 15.0355C81.6609 15.2713 81.8327 15.4531 82.0543 15.581C82.2759 15.7088 82.5387 15.7727 82.8427 15.7727C83.0444 15.7727 83.229 15.7443 83.3967 15.6875C83.5643 15.6307 83.7077 15.5455 83.8271 15.4318C83.9464 15.3182 84.0373 15.179 84.0998 15.0142L85.7788 15.125C85.6935 15.5284 85.5188 15.8807 85.2546 16.1818C84.9933 16.4801 84.6552 16.7131 84.2404 16.8807C83.8285 17.0455 83.3526 17.1278 82.8129 17.1278Z" fill="black"/>
</svg>
